<?xml version="1.0" encoding="UTF-8"?>
<svg version="1.1" xmlns="http://www.w3.org/2000/svg" width="32" height="32" viewBox="370 300 460 560">
<path d="M0 0 C11.42368581 6.55804185 19.21313281 17.89318197 27.375 27.9375 C28.87429362 29.77141105 30.37428825 31.60474924 31.875 33.4375 C32.61621094 34.34371094 33.35742188 35.24992187 34.12109375 36.18359375 C35.63298227 38.03087522 37.14601749 39.87721875 38.66015625 41.72265625 C42.21949205 46.06345857 45.76147276 50.41453999 49.25 54.8125 C52.38771057 58.75026426 55.61223861 62.60364394 58.875 66.4375 C62.71279807 70.94860741 66.471441 75.50762787 70.15234375 80.1484375 C73.0164681 83.74243537 75.91328291 87.30928669 78.8125 90.875 C79.37533691 91.56722656 79.93817383 92.25945312 80.51806641 92.97265625 C85.12605644 98.63661611 89.74755703 104.28942475 94.375 109.9375 C95.05433594 110.76894531 95.73367188 111.60039062 96.43359375 112.45703125 C99.87164413 116.66470025 103.31533704 120.86739129 106.7734375 125.05859375 C112.28944756 131.74426199 117.79554162 138.43231962 123.1875 145.21875 C126.21779774 148.9849772 129.2975594 152.7097597 132.375 156.4375 C138.11581078 163.39209956 143.78137945 170.39818984 149.37890625 177.46875 C151.09906539 179.59622666 152.86317338 181.64982731 154.6875 183.6875 C157.03327364 186.35359987 159.27829839 189.05604234 161.4375 191.875 C164.95798863 196.46278609 168.62870802 200.9183473 172.3125 205.375 C176.76250388 210.75936498 181.18096783 216.16340344 185.53125 221.62890625 C190.38442595 227.70565833 195.3187438 233.71219471 200.36645508 239.62817383 C205.16999462 245.25900375 209.82597507 250.97885978 214.36816406 256.82275391 C218.04332279 261.54624967 221.83867601 266.15328629 225.6953125 270.73046875 C227.375 272.9375 227.375 272.9375 228.375 275.9375 C229.035 275.9375 229.695 275.9375 230.375 275.9375 C231.97342113 277.94745492 233.43370765 279.94430677 234.875 282.0625 C235.27847656 282.63226562 235.68195313 283.20203125 236.09765625 283.7890625 C240.90388153 290.76839954 242.42350013 297.50073153 241.375 305.9375 C240.30540192 308.63474734 239.07185666 310.55129532 237.375 312.9375 C236.715 312.9375 236.055 312.9375 235.375 312.9375 C235.045 313.9275 234.715 314.9175 234.375 315.9375 C232.86303711 317.0690918 232.86303711 317.0690918 230.90234375 318.13671875 C230.1757959 318.53713379 229.44924805 318.93754883 228.70068359 319.35009766 C227.51853271 319.98117432 227.51853271 319.98117432 226.3125 320.625 C225.50119629 321.06634277 224.68989258 321.50768555 223.85400391 321.96240234 C216.75919141 325.79523209 209.5696494 329.42521351 202.32958984 332.97412109 C200.37677944 333.93662295 198.4315372 334.91289655 196.48828125 335.89453125 C188.42267664 339.96604765 180.30564509 343.90465562 172.1081543 347.70483398 C167.34663948 349.93105686 162.76394783 352.3504644 158.22045898 354.99536133 C156.375 355.9375 156.375 355.9375 154.375 355.9375 C156.55224652 358.18236287 158.84792549 360.18732901 161.25 362.1875 C167.20511286 367.38727685 171.879276 373.00866664 172.56396484 381.19750977 C172.6434919 383.7806194 172.64780154 386.35332601 172.625 388.9375 C172.63273437 389.8140625 172.64046875 390.690625 172.6484375 391.59375 C172.63656056 395.53689332 172.52227849 398.52376371 171.1875 402.2734375 C170.06238127 404.93109161 170.06238127 404.93109161 171.421875 407.3515625 C171.98390625 408.08117187 172.5459375 408.81078125 173.125 409.5625 C177.72910763 415.69413867 178.75982853 419.59110418 178.8125 427.1875 C178.84537109 428.00863281 178.87824219 428.82976562 178.91210938 429.67578125 C178.97865038 437.3098496 176.22833641 441.85589668 171.12890625 447.36328125 C170.40574219 447.98589844 169.68257812 448.60851562 168.9375 449.25 C168.21691406 449.88550781 167.49632812 450.52101563 166.75390625 451.17578125 C160.51507 455.79600317 155.67695259 456.40918218 148.125 456.3125 C146.78888672 456.32990234 146.78888672 456.32990234 145.42578125 456.34765625 C137.11313504 456.31146185 129.76665839 454.26585634 122.25 450.75 C121.50492188 450.40582031 120.75984375 450.06164062 119.9921875 449.70703125 C119.45851563 449.45308594 118.92484375 449.19914062 118.375 448.9375 C117.8903125 449.39640625 117.405625 449.8553125 116.90625 450.328125 C108.49936406 458.02365905 101.52528428 461.13092199 90.125 461 C89.37992188 460.99548828 88.63484375 460.99097656 87.8671875 460.98632812 C86.0364236 460.97459246 84.20570127 460.9566585 82.375 460.9375 C82.22804688 461.47117187 82.08109375 462.00484375 81.9296875 462.5546875 C79.03612378 472.16664054 74.19514705 480.53180782 66.375 486.9375 C65.76527344 487.44539063 65.15554688 487.95328125 64.52734375 488.4765625 C57.40611284 493.38870251 48.66682933 492.99033024 40.375 491.9375 C32.66590225 490.04718699 26.77429593 485.11494596 22.0625 478.875 C19.24402425 473.96876444 18.10941734 470.6475271 18.375 464.9375 C17.67503906 464.69515625 16.97507812 464.4528125 16.25390625 464.203125 C12.90407135 462.73047031 10.24860515 460.87009144 7.3125 458.6875 C6.29027344 457.93984375 5.26804687 457.1921875 4.21484375 456.421875 C0.12653385 452.84530678 -2.26054262 448.75847754 -4.625 443.9375 C-17.91514451 451.8713038 -17.91514451 451.8713038 -31.125 459.9375 C-38.06063192 464.22386135 -45.05462585 468.41100103 -52.05078125 472.59765625 C-55.94894244 474.93069421 -59.84128283 477.27312562 -63.73046875 479.62109375 C-74.58030406 486.16429108 -85.46836373 492.61398287 -96.4934082 498.85791016 C-102.34491357 502.179388 -108.07712727 505.64410454 -113.78515625 509.20703125 C-117.41793362 511.42067689 -121.13956117 513.43735846 -124.88671875 515.44921875 C-132.03976834 519.33696753 -139.00985302 523.53889648 -145.9375 527.8125 C-147.01644531 528.46992187 -148.09539062 529.12734375 -149.20703125 529.8046875 C-151.62441606 531.2909055 -153.97913587 532.84769805 -156.32421875 534.4453125 C-164.38797084 539.8114523 -170.61978972 542.75913829 -180.625 540.9375 C-183.23827512 540.15999666 -185.23016042 539.27415465 -187.625 537.9375 C-187.625 537.2775 -187.625 536.6175 -187.625 535.9375 C-188.615 535.6075 -189.605 535.2775 -190.625 534.9375 C-191.7578125 533.37890625 -191.7578125 533.37890625 -192.75 531.5 C-193.24886719 530.57380859 -193.24886719 530.57380859 -193.7578125 529.62890625 C-197.6511712 522.03510301 -196.04886341 513.39365246 -193.5703125 505.50390625 C-192.66334961 502.82358219 -191.70938605 500.16191869 -190.75 497.5 C-190.24473588 496.05045022 -189.74160167 494.60015647 -189.24047852 493.14916992 C-188.21360787 490.18166754 -187.17757067 487.21762611 -186.13427734 484.25585938 C-183.86112026 477.78134193 -181.71726054 471.26471311 -179.5625 464.75 C-178.7376136 462.27322611 -177.91209343 459.79666321 -177.0859375 457.3203125 C-176.47637207 455.49161621 -176.47637207 455.49161621 -175.85449219 453.62597656 C-144.77799479 360.39648438 -113.7014974 267.16699219 -49.59199524 74.83856201 C-49.13131208 73.45646158 -48.67069017 72.07434072 -48.21012878 70.69219971 C-47.05615077 67.22937797 -45.90113605 63.76690902 -44.74389648 60.30517578 C-42.66508053 54.08323162 -40.59403628 47.8592418 -38.56268311 41.62161255 C-37.67424844 38.89509359 -36.78029663 36.17039728 -35.88598633 33.44580078 C-35.27197386 31.56722903 -34.66610705 29.68600088 -34.06054688 27.8046875 C-27.79939683 8.75457851 -27.79939683 8.75457851 -20.625 2.9375 C-19.965 2.9375 -19.305 2.9375 -18.625 2.9375 C-18.625 2.2775 -18.625 1.6175 -18.625 0.9375 C-12.73808773 -2.20218654 -6.23864908 -1.82856956 0 0 Z " fill="#000000" transform="translate(575.625,310.0625)"/>
<path d="M0 0 C11.42368581 6.55804185 19.21313281 17.89318197 27.375 27.9375 C28.87429362 29.77141105 30.37428825 31.60474924 31.875 33.4375 C32.61621094 34.34371094 33.35742188 35.24992187 34.12109375 36.18359375 C35.63298227 38.03087522 37.14601749 39.87721875 38.66015625 41.72265625 C42.21949205 46.06345857 45.76147276 50.41453999 49.25 54.8125 C52.38771057 58.75026426 55.61223861 62.60364394 58.875 66.4375 C62.71279807 70.94860741 66.471441 75.50762787 70.15234375 80.1484375 C73.0164681 83.74243537 75.91328291 87.30928669 78.8125 90.875 C79.37533691 91.56722656 79.93817383 92.25945312 80.51806641 92.97265625 C85.12605644 98.63661611 89.74755703 104.28942475 94.375 109.9375 C95.05433594 110.76894531 95.73367188 111.60039062 96.43359375 112.45703125 C99.87164413 116.66470025 103.31533704 120.86739129 106.7734375 125.05859375 C112.28944756 131.74426199 117.79554162 138.43231962 123.1875 145.21875 C126.21779774 148.9849772 129.2975594 152.7097597 132.375 156.4375 C138.11581078 163.39209956 143.78137945 170.39818984 149.37890625 177.46875 C151.09906539 179.59622666 152.86317338 181.64982731 154.6875 183.6875 C157.03327364 186.35359987 159.27829839 189.05604234 161.4375 191.875 C164.95798863 196.46278609 168.62870802 200.9183473 172.3125 205.375 C176.76250388 210.75936498 181.18096783 216.16340344 185.53125 221.62890625 C190.38442595 227.70565833 195.3187438 233.71219471 200.36645508 239.62817383 C205.16999462 245.25900375 209.82597507 250.97885978 214.36816406 256.82275391 C218.04332279 261.54624967 221.83867601 266.15328629 225.6953125 270.73046875 C227.375 272.9375 227.375 272.9375 228.375 275.9375 C229.035 275.9375 229.695 275.9375 230.375 275.9375 C231.97342113 277.94745492 233.43370765 279.94430677 234.875 282.0625 C235.27847656 282.63226562 235.68195313 283.20203125 236.09765625 283.7890625 C240.90388153 290.76839954 242.42350013 297.50073153 241.375 305.9375 C240.30540192 308.63474734 239.07185666 310.55129532 237.375 312.9375 C236.715 312.9375 236.055 312.9375 235.375 312.9375 C235.045 313.9275 234.715 314.9175 234.375 315.9375 C232.86303711 317.0690918 232.86303711 317.0690918 230.90234375 318.13671875 C230.1757959 318.53713379 229.44924805 318.93754883 228.70068359 319.35009766 C227.51853271 319.98117432 227.51853271 319.98117432 226.3125 320.625 C225.50119629 321.06634277 224.68989258 321.50768555 223.85400391 321.96240234 C216.75919141 325.79523209 209.5696494 329.42521351 202.32958984 332.97412109 C200.37677944 333.93662295 198.4315372 334.91289655 196.48828125 335.89453125 C188.42267664 339.96604765 180.30564509 343.90465562 172.1081543 347.70483398 C167.34663948 349.93105686 162.76394783 352.3504644 158.22045898 354.99536133 C156.375 355.9375 156.375 355.9375 154.375 355.9375 C156.55224652 358.18236287 158.84792549 360.18732901 161.25 362.1875 C167.20511286 367.38727685 171.879276 373.00866664 172.56396484 381.19750977 C172.6434919 383.7806194 172.64780154 386.35332601 172.625 388.9375 C172.63273437 389.8140625 172.64046875 390.690625 172.6484375 391.59375 C172.63656056 395.53689332 172.52227849 398.52376371 171.1875 402.2734375 C170.06238127 404.93109161 170.06238127 404.93109161 171.421875 407.3515625 C171.98390625 408.08117187 172.5459375 408.81078125 173.125 409.5625 C177.72910763 415.69413867 178.75982853 419.59110418 178.8125 427.1875 C178.84537109 428.00863281 178.87824219 428.82976562 178.91210938 429.67578125 C178.97865038 437.3098496 176.22833641 441.85589668 171.12890625 447.36328125 C170.40574219 447.98589844 169.68257812 448.60851562 168.9375 449.25 C168.21691406 449.88550781 167.49632812 450.52101563 166.75390625 451.17578125 C160.51507 455.79600317 155.67695259 456.40918218 148.125 456.3125 C146.78888672 456.32990234 146.78888672 456.32990234 145.42578125 456.34765625 C137.11313504 456.31146185 129.76665839 454.26585634 122.25 450.75 C121.50492188 450.40582031 120.75984375 450.06164062 119.9921875 449.70703125 C119.45851563 449.45308594 118.92484375 449.19914062 118.375 448.9375 C117.8903125 449.39640625 117.405625 449.8553125 116.90625 450.328125 C108.49936406 458.02365905 101.52528428 461.13092199 90.125 461 C89.37992188 460.99548828 88.63484375 460.99097656 87.8671875 460.98632812 C86.0364236 460.97459246 84.20570127 460.9566585 82.375 460.9375 C82.22804688 461.47117187 82.08109375 462.00484375 81.9296875 462.5546875 C79.03612378 472.16664054 74.19514705 480.53180782 66.375 486.9375 C65.76527344 487.44539063 65.15554688 487.95328125 64.52734375 488.4765625 C57.40611284 493.38870251 48.66682933 492.99033024 40.375 491.9375 C32.66590225 490.04718699 26.77429593 485.11494596 22.0625 478.875 C19.24402425 473.96876444 18.10941734 470.6475271 18.375 464.9375 C17.67503906 464.69515625 16.97507812 464.4528125 16.25390625 464.203125 C12.90407135 462.73047031 10.24860515 460.87009144 7.3125 458.6875 C6.29027344 457.93984375 5.26804687 457.1921875 4.21484375 456.421875 C0.12653385 452.84530678 -2.26054262 448.75847754 -4.625 443.9375 C-17.91514451 451.8713038 -17.91514451 451.8713038 -31.125 459.9375 C-38.06063192 464.22386135 -45.05462585 468.41100103 -52.05078125 472.59765625 C-55.94894244 474.93069421 -59.84128283 477.27312562 -63.73046875 479.62109375 C-74.58030406 486.16429108 -85.46836373 492.61398287 -96.4934082 498.85791016 C-102.34491357 502.179388 -108.07712727 505.64410454 -113.78515625 509.20703125 C-117.41793362 511.42067689 -121.13956117 513.43735846 -124.88671875 515.44921875 C-132.03976834 519.33696753 -139.00985302 523.53889648 -145.9375 527.8125 C-147.01644531 528.46992187 -148.09539062 529.12734375 -149.20703125 529.8046875 C-151.62441606 531.2909055 -153.97913587 532.84769805 -156.32421875 534.4453125 C-164.38797084 539.8114523 -170.61978972 542.75913829 -180.625 540.9375 C-183.23827512 540.15999666 -185.23016042 539.27415465 -187.625 537.9375 C-187.625 537.2775 -187.625 536.6175 -187.625 535.9375 C-188.615 535.6075 -189.605 535.2775 -190.625 534.9375 C-191.7578125 533.37890625 -191.7578125 533.37890625 -192.75 531.5 C-193.24886719 530.57380859 -193.24886719 530.57380859 -193.7578125 529.62890625 C-197.6511712 522.03510301 -196.04886341 513.39365246 -193.5703125 505.50390625 C-192.66334961 502.82358219 -191.70938605 500.16191869 -190.75 497.5 C-190.24473588 496.05045022 -189.74160167 494.60015647 -189.24047852 493.14916992 C-188.21360787 490.18166754 -187.17757067 487.21762611 -186.13427734 484.25585938 C-183.86112026 477.78134193 -181.71726054 471.26471311 -179.5625 464.75 C-178.7376136 462.27322611 -177.91209343 459.79666321 -177.0859375 457.3203125 C-176.47637207 455.49161621 -176.47637207 455.49161621 -175.85449219 453.62597656 C-144.77799479 360.39648438 -113.7014974 267.16699219 -49.59199524 74.83856201 C-49.13131208 73.45646158 -48.67069017 72.07434072 -48.21012878 70.69219971 C-47.05615077 67.22937797 -45.90113605 63.76690902 -44.74389648 60.30517578 C-42.66508053 54.08323162 -40.59403628 47.8592418 -38.56268311 41.62161255 C-37.67424844 38.89509359 -36.78029663 36.17039728 -35.88598633 33.44580078 C-35.27197386 31.56722903 -34.66610705 29.68600088 -34.06054688 27.8046875 C-27.79939683 8.75457851 -27.79939683 8.75457851 -20.625 2.9375 C-19.965 2.9375 -19.305 2.9375 -18.625 2.9375 C-18.625 2.2775 -18.625 1.6175 -18.625 0.9375 C-12.73808773 -2.20218654 -6.23864908 -1.82856956 0 0 Z M-8.625 20.9375 C-12.66906086 31.48139432 -16.44005505 42.0894266 -19.98486328 52.8112793 C-20.75334844 55.13512546 -21.52670374 57.45730824 -22.30078125 59.77929688 C-24.45053104 66.24459268 -26.57611645 72.71060494 -28.54296875 79.234375 C-31.08141003 87.5732065 -33.96116641 95.79603105 -36.7947998 104.03796387 C-44.08186482 125.24710775 -51.12409595 146.5305965 -58.03979492 167.86352539 C-58.38392929 168.92307938 -58.72806366 169.98263336 -59.08262634 171.07429504 C-59.71974664 173.03674977 -60.35520988 174.99974371 -60.98854065 176.96342468 C-62.79345571 182.52359209 -64.73286709 188.01948198 -66.74835205 193.50665283 C-67.73602812 196.24536863 -68.60483751 199.00270829 -69.421875 201.796875 C-72.00847298 210.34018213 -74.94783026 218.7606046 -77.84918213 227.20111084 C-83.97075765 245.02240961 -89.93608603 262.88857746 -95.75 280.8125 C-101.22704118 297.6916511 -106.84339587 314.5149137 -112.60888672 331.29760742 C-113.17682172 332.95098716 -113.74469339 334.60438866 -114.3125 336.2578125 C-114.58965851 337.06485123 -114.86681702 337.87188995 -115.15237427 338.7033844 C-119.35610694 350.96341045 -123.4280903 363.26775004 -127.50921631 375.56900024 C-129.14962459 380.51208683 -130.7990592 385.45209325 -132.453125 390.390625 C-133.12958075 392.41222016 -133.80594333 394.43384648 -134.4822998 396.45547485 C-135.0969402 398.29119498 -135.7129873 400.12644393 -136.32910156 401.96166992 C-138.19376827 407.54009122 -140.00424119 413.12736241 -141.71875 418.75390625 C-143.42955827 424.36442575 -145.32669575 429.87786362 -147.3359375 435.38671875 C-148.77879823 439.39725099 -150.08852349 443.42606815 -151.31640625 447.5078125 C-154.4704303 457.86140214 -158.05650331 468.07412929 -161.5625 478.3125 C-164.25441455 486.1859966 -166.94283556 494.06067645 -169.625 501.9375 C-169.90144348 502.74803833 -170.17788696 503.55857666 -170.46270752 504.39367676 C-171.1881283 506.52435549 -171.90940305 508.65637952 -172.62890625 510.7890625 C-173.02021729 511.94486816 -173.41152832 513.10067383 -173.81469727 514.29150391 C-174.7226049 516.79500831 -174.7226049 516.79500831 -174.625 518.9375 C-171.44149324 518.29846345 -169.08416208 517.17958662 -166.31640625 515.49609375 C-165.08204834 514.75020996 -165.08204834 514.75020996 -163.82275391 513.98925781 C-162.51830322 513.1902002 -162.51830322 513.1902002 -161.1875 512.375 C-159.84051025 511.55854004 -159.84051025 511.55854004 -158.46630859 510.72558594 C-153.54519837 507.73811604 -148.64437243 504.71850196 -143.75 501.6875 C-139.09068934 498.8084808 -134.37789076 496.04830778 -129.61206055 493.34960938 C-123.73130979 490.0149429 -117.89761727 486.60124207 -112.0625 483.1875 C-104.21455765 478.59712444 -96.34255866 474.0537487 -88.4375 469.5625 C-81.90000057 465.84297138 -75.43954201 462.04540659 -69.05859375 458.0625 C-64.61586616 455.29609498 -60.11653491 452.62360994 -55.625 449.9375 C-49.03507483 445.99258977 -42.46759359 442.01739859 -35.93359375 437.98046875 C-24.58587038 430.97355102 -13.18324411 424.0606581 -1.74047852 417.21020508 C2.85534685 414.45647656 7.43906138 411.68614456 12 408.875 C13.02351562 408.24464844 14.04703125 407.61429688 15.1015625 406.96484375 C17.45595108 405.50669617 19.8037422 404.03992901 22.1484375 402.56640625 C49.38015283 385.56071521 78.13599945 371.01401726 106.8515625 356.70703125 C112.69823679 353.79359175 118.48009787 350.79349929 124.20898438 347.65429688 C128.18022553 345.50375764 132.21546374 343.69125042 136.375 341.9375 C139.30557206 340.6126144 142.21574062 339.24594541 145.125 337.875 C145.84042969 337.54306641 146.55585937 337.21113281 147.29296875 336.86914062 C153.02088243 334.16939042 158.61720902 331.24559093 164.2109375 328.28125 C174.47139977 322.84593201 184.84898538 317.65990101 195.25 312.5 C198.76940498 310.75365509 202.28742803 309.00456755 205.8046875 307.25390625 C206.59422821 306.86328506 207.38376892 306.47266388 208.19723511 306.07020569 C212.02278041 304.16598139 215.74887099 302.20845005 219.375 299.9375 C218.49828645 295.35614469 215.78241952 292.63588336 212.75 289.25 C211.63911934 287.98308948 210.52973536 286.714865 209.421875 285.4453125 C208.88884766 284.8359082 208.35582031 284.22650391 207.80664062 283.59863281 C206.13396341 281.65782521 204.55122295 279.66397862 203 277.625 C199.59300691 273.15489112 196.01786591 268.83132159 192.4375 264.5 C187.98449991 259.11203872 183.56196737 253.7052902 179.2109375 248.234375 C176.47907027 244.81663473 173.70032432 241.4378091 170.92578125 238.0546875 C167.89724429 234.35839389 164.88673042 230.64748926 161.875 226.9375 C156.72284795 220.592218 151.55551989 214.25965297 146.375 207.9375 C144.87485719 206.10428352 143.37485918 204.27094854 141.875 202.4375 C141.12605469 201.52226562 140.37710937 200.60703125 139.60546875 199.6640625 C138.17000065 197.90932216 136.73506204 196.15414845 135.30078125 194.3984375 C131.86768173 190.19749132 128.42935653 186.00117735 124.9765625 181.81640625 C114.31449909 168.89295358 114.31449909 168.89295358 110.1875 163.6875 C107.15721793 159.87206989 104.032121 156.14775974 100.875 152.4375 C96.26624762 147.020955 91.78543305 141.5172963 87.375 135.9375 C80.16205096 126.83808736 72.76701737 117.89137596 65.375 108.9375 C42.00717424 80.6236648 42.00717424 80.6236648 31.33178711 66.95117188 C27.57184801 62.15142508 23.69119907 57.46582125 19.76953125 52.796875 C17.46880416 50.04951411 15.19900611 47.27968424 12.9375 44.5 C9.07477244 39.76437848 5.1429774 35.09135984 1.17993164 30.43969727 C-0.88192588 28.01601701 -2.89367034 25.58531757 -4.82421875 23.0546875 C-5.41847656 22.35601562 -6.01273438 21.65734375 -6.625 20.9375 C-7.285 20.9375 -7.945 20.9375 -8.625 20.9375 Z " fill="#FDFDFD" transform="translate(575.625,310.0625)"/>
<path d="M0 0 C3.5100197 2.38865673 5.57762487 5.19283785 6.546875 9.33984375 C6.92841634 16.04861227 4.72857108 21.49303188 1 27 C-1.75 29.4375 -1.75 29.4375 -4 31 C-4.33 31.99 -4.66 32.98 -5 34 C-3.824375 34.53625 -2.64875 35.0725 -1.4375 35.625 C4.08284375 38.38026926 8.56754868 41.85132301 12 47 C12.63274336 52.69469027 12.63274336 52.69469027 12 55 C9.43040599 57.653843 7.6901406 58.8590429 4.0546875 59.6015625 C-6.98034138 59.68290178 -14.41370248 55.70387331 -22.5625 48.4921875 C-23.036875 47.99976563 -23.51125 47.50734375 -24 47 C-24.5465625 46.43539062 -25.093125 45.87078125 -25.65625 45.2890625 C-27.5311239 42.09523661 -27.53319432 39.10583939 -27.5 35.5 C-27.49500488 34.79093506 -27.49000977 34.08187012 -27.48486328 33.35131836 C-27.14809298 23.04034068 -22.38716128 13.95860572 -16 6 C-13.375 3.5625 -13.375 3.5625 -11 2 C-10.38125 1.5875 -9.7625 1.175 -9.125 0.75 C-5.76593534 -0.43555223 -3.54009762 -0.54932549 0 0 Z " fill="#040404" transform="translate(721,686)"/>
<path d="M0 0 C8.57091815 5.4153227 8.57091815 5.4153227 9.6875 9.5390625 C9.8421875 10.75722656 9.8421875 10.75722656 10 12 C10.495 13.485 10.495 13.485 11 15 C11.4537442 21.28569175 10.41869349 25.47172685 7.75 31.125 C7.44964844 31.80175781 7.14929688 32.47851562 6.83984375 33.17578125 C2.29116881 43.18286612 2.29116881 43.18286612 -1.8125 46.4375 C-5.1701584 47.30089787 -7.65961443 46.83509639 -11 46 C-13.94115955 43.78104689 -14.89933414 42.66029979 -15.4609375 38.9765625 C-15.41839844 37.31753906 -15.41839844 37.31753906 -15.375 35.625 C-15.35566406 33.97371094 -15.35566406 33.97371094 -15.3359375 32.2890625 C-14.99326332 28.93404323 -14.18817444 26.14628593 -13 23 C-13.76183594 23.05800781 -14.52367187 23.11601563 -15.30859375 23.17578125 C-24.40267731 23.57315069 -29.82607217 21.76671536 -36.5625 15.6875 C-38.50003932 12.06514388 -39.14858552 8.93910873 -38 5 C-29.96314885 -5.47784319 -10.98491568 -6.00902297 0 0 Z " fill="#030303" transform="translate(630,734)"/>
<path d="M0 0 C4.44460371 2.70162186 7.8480979 6.2586958 10.1875 10.9375 C11.16188982 20.28205813 9.04303235 26.48622898 4.0625 34.25 C-0.68374402 38.68670636 -6.482771 41.05711698 -13 41.4375 C-19.0466699 40.64449411 -22.40639943 38.71362703 -26.1875 33.9375 C-29.29946021 28.19234269 -29.55459672 22.37753474 -28.8125 15.9375 C-26.5907073 8.97322602 -22.82569273 4.0422235 -16.8125 -0.0625 C-11.85764903 -2.53992548 -5.13345131 -1.43063397 0 0 Z " fill="#030303" transform="translate(675.8125,709.0625)"/>
<path d="M0 0 C2.5 0.25 2.5 0.25 4.5 2.25 C5.13187834 6.32210486 5.39709663 8.78846871 3.21484375 12.34375 C-2.46973233 19.07718863 -9.49702378 25.35034972 -18.4453125 26.69140625 C-28.19030902 27.0625302 -34.05359141 24.04093272 -41.28515625 17.6796875 C-42.5 16.25 -42.5 16.25 -42.8125 13.6875 C-42.5 11.25 -42.5 11.25 -40.5 9.25 C-37.2272507 8.61141477 -35.22032021 8.79197754 -32.38671875 10.59375 C-31.64035156 11.1403125 -30.89398437 11.686875 -30.125 12.25 C-25.52775684 15.51056573 -23.08396153 16.16540353 -17.5 15.25 C-14.25954128 13.58969988 -14.25954128 13.58969988 -11.5 11.25 C-10.13875 10.2909375 -10.13875 10.2909375 -8.75 9.3125 C-6.28332117 7.05137774 -5.5679297 5.37164066 -4.5 2.25 C-2.5 0.25 -2.5 0.25 0 0 Z " fill="#F7F6F6" transform="translate(663.5,543.75)"/>
<path d="M0 0 C4.01231303 1.40430956 5.18974117 3.27368884 7.140625 7.0546875 C7.68480928 8.28306464 8.22107131 9.51497718 8.75 10.75 C9.03101563 11.36230469 9.31203125 11.97460938 9.6015625 12.60546875 C11.24509416 16.40511869 11.94128876 18.93265134 10.5 22.875 C8.5 24.875 8.5 24.875 6.0625 25.25 C3.5 24.875 3.5 24.875 2.00390625 23.21875 C0.2999792 20.56327927 -0.91623 17.91439639 -2.125 15 C-2.55039062 13.99195313 -2.97578125 12.98390625 -3.4140625 11.9453125 C-4.49577758 8.88693822 -5.16873722 6.10021123 -5.5 2.875 C-3.91627825 0.14747921 -3.15139583 -0.15756979 0 0 Z " fill="#F4F3F4" transform="translate(624.5,520.125)"/>
<path d="M0 0 C2.625 0.4375 2.625 0.4375 4.625 2.3125 C12.20983588 14.16380606 12.20983588 14.16380606 11.625 20.4375 C10.4375 22.3125 10.4375 22.3125 8.625 23.4375 C5.9017356 23.30133678 4.25942228 22.95869206 2.13671875 21.21484375 C0.25399904 19.00131024 -0.84722302 16.76357434 -2.0625 14.125 C-2.49949219 13.20074219 -2.93648437 12.27648437 -3.38671875 11.32421875 C-4.47622354 8.14183124 -4.70009666 5.77798595 -4.375 2.4375 C-2.375 0.4375 -2.375 0.4375 0 0 Z " fill="#F4F3F3" transform="translate(637.375,514.5625)"/>
<path d="M0 0 C0.66 0.33 1.32 0.66 2 1 C1.67 3.31 1.34 5.62 1 8 C0.01 8 -0.98 8 -2 8 C-1.34 5.36 -0.68 2.72 0 0 Z " fill="#211F20" transform="translate(466,632)"/>
</svg>
